{"title":"The Mysteries of Pittsburgh-AC3-5,1-DVDRip[Eng]2008","uid":5026616,"size":1376059952,"categoryP":"video","categoryS":"movies","magnet":"?xt=urn:btih:70dc683fd19f25d6af8ab4bc86d889c42c706ea4&amp;dn=The+Mysteries+of+Pittsburgh-AC3-5%2C1-DVDRip%5BEng%5D2008&amp;tr=udp%3A%2F%2Ftracker.openbittorrent.com%3A80&amp;tr=udp%3A%2F%2Fopen.demonii.com%3A1337&amp;tr=udp%3A%2F%2Ftracker.coppersurfer.tk%3A6969&amp;tr=udp%3A%2F%2Fexodus.desync.com%3A6969","seeders":0,"leechers":2,"uploader":"FatFreddy31","files":-1,"time":1248723579,"description":" &lt;a href=&quot;http://www.imdb.com/title/tt0768218/&quot; rel=&quot;nofollow&quot; target=&quot;_NEW&quot;&gt;http://www.imdb.com/title/tt0768218/&lt;/a&gt;\n &lt;a href=&quot;\nhttp://www.mysteriesofpittsburgh.com/&quot; rel=&quot;nofollow&quot; target=&quot;_NEW&quot;&gt;\nhttp://www.mysteriesofpittsburgh.com/&lt;/a&gt;\n\nUser Rating:5.1/10 - 406 votes\n\nAdventure,Comedy,Drama\n\nDirector:Rawson Marshall Thurber\n\nCast:Jon Foster/Marc Macaulay/Sienna Miller/Peter Sarsgaard, and others.\n\nPlot:\nBased on Michael Chabon's novel, the film chronicles the defining summer of a recent college graduate who crosses his gangster father and explores love, sexuality, and the enigmas surrounding his life and his city...\n\nInfo:\n\nGeneral\nComplete name                    : The Mysteries of Pittsburgh-AC3-5,1-DVDRip[Eng]2008.avi\nFormat                           : AVI\nFormat/Info                      : Audio Video Interleave\nFile size                        : 1.28 GiB\nDuration                         : 1h 36mn\nOverall bit rate                 : 1 902 Kbps\nWriting application              : VirtualDubMod 1.5.4.1 (build 2178/release)\nWriting library                  : VirtualDubMod build 2178/release\n\nVideo\nFormat                           : MPEG-4 Visual\nFormat profile                   : Simple@L3\nFormat settings, BVOP            : No\nFormat settings, QPel            : No\nFormat settings, GMC             : No warppoints\nFormat settings, Matrix          : Default\nCodec ID                         : XVID\nCodec ID/Hint                    : XviD\nDuration                         : 1h 36mn\nBit rate                         : 1 445 Kbps\nWidth                            : 608 pixels\nHeight                           : 256 pixels\nDisplay aspect ratio             : 2.35\nFrame rate                       : 23.976 fps\nResolution                       : 24 bits\nColorimetry                      : 4:2:0\nScan type                        : Progressive\nBits/(Pixel*Frame)               : 0.387\nStream size                      : 997 MiB (76%)\nWriting library                  : XviD 1.1.2 (UTC 2006-11-01)\n\nAudio\nFormat                           : AC-3\nFormat/Info                      : Audio Coding 3\nCodec ID                         : 2000\nDuration                         : 1h 36mn\nBit rate mode                    : Constant\nBit rate                         : 448 Kbps\nChannel(s)                       : 6 channels\nChannel positions                : Front: L C R, Surround: L R, LFE\nSampling rate                    : 48.0 KHz\nStream size                      : 309 MiB (24%)\nAlignment                        : Split accross interleaves\nInterleave, duration             : 42 ms (1.00 video frame)\nInterleave, preload duration     : 500 ms\n\nEnjoy....","torrent":{"xt":"urn:btih:70dc683fd19f25d6af8ab4bc86d889c42c706ea4","amp;dn":"The+Mysteries+of+Pittsburgh-AC3-5%2C1-DVDRip%5BEng%5D2008","amp;tr":["udp%3A%2F%2Ftracker.openbittorrent.com%3A80","udp%3A%2F%2Fopen.demonii.com%3A1337","udp%3A%2F%2Ftracker.coppersurfer.tk%3A6969","udp%3A%2F%2Fexodus.desync.com%3A6969"],"infoHash":"70dc683fd19f25d6af8ab4bc86d889c42c706ea4","infoHashBuffer":{"type":"Buffer","data":[112,220,104,63,209,159,37,214,175,138,180,188,134,216,137,196,44,112,110,164]},"announce":[],"urlList":[]}}